<svg id="Groupe_3586" data-name="Groupe 3586" xmlns="http://www.w3.org/2000/svg" xmlns:xlink="http://www.w3.org/1999/xlink" width="126.019" height="132.795" viewBox="0 0 126.019 132.795">
  <defs>
    <clipPath id="clip-path">
      <rect id="Rectangle_2750" data-name="Rectangle 2750" width="126.019" height="132.795" fill="none"/>
    </clipPath>
  </defs>
  <g id="Groupe_3585" data-name="Groupe 3585" clip-path="url(#clip-path)">
    <path id="Tracé_2987" data-name="Tracé 2987" d="M56.162,59.67h0a9.941,9.941,0,0,1-6.482-2.344,8.728,8.728,0,0,1-3.065-5.967,9.087,9.087,0,0,1,2.4-6.834,10.438,10.438,0,0,1,6.733-3.37,10.758,10.758,0,0,1,1.076-.054A9.942,9.942,0,0,1,63.3,43.444a8.728,8.728,0,0,1,3.066,5.967,9.089,9.089,0,0,1-2.4,6.834,10.439,10.439,0,0,1-6.733,3.37A10.752,10.752,0,0,1,56.162,59.67Zm.66-16.57a8.75,8.75,0,0,0-.875.044c-4.361.439-7.653,4.054-7.338,8.058a7.283,7.283,0,0,0,7.554,6.468h0a8.745,8.745,0,0,0,.875-.044c4.361-.439,7.653-4.054,7.339-8.058A7.284,7.284,0,0,0,56.822,43.1Z" fill="#13b5ea"/>
    <path id="Tracé_2988" data-name="Tracé 2988" d="M23.652,47.683a1,1,0,0,1-.872-.509A7.236,7.236,0,0,0,20.254,46a1,1,0,0,1,.562-1.919,15.64,15.64,0,0,1,1.485.532A4.3,4.3,0,0,1,24.528,46.2a1,1,0,0,1-.876,1.481Z" fill="#13b5ea"/>
    <path id="Tracé_2989" data-name="Tracé 2989" d="M48.4,46.625a1,1,0,0,1-.63-.224,5.846,5.846,0,0,0-7.224-.252,1,1,0,1,1-1.221-1.584,8.46,8.46,0,0,1,3-1.358,7.565,7.565,0,0,1,6.7,1.642,1,1,0,0,1-.631,1.776Z" fill="#13b5ea"/>
    <path id="Tracé_2990" data-name="Tracé 2990" d="M32.541,59.67a10.756,10.756,0,0,1-1.076-.054,10.439,10.439,0,0,1-6.733-3.37,9.089,9.089,0,0,1-2.4-6.834A8.728,8.728,0,0,1,25.4,43.444,9.942,9.942,0,0,1,31.881,41.1a10.76,10.76,0,0,1,1.076.054,10.439,10.439,0,0,1,6.733,3.37,9.087,9.087,0,0,1,2.4,6.834,8.728,8.728,0,0,1-3.065,5.967A9.941,9.941,0,0,1,32.541,59.67Zm-.66-16.57a7.284,7.284,0,0,0-7.554,6.468c-.313,4,2.979,7.619,7.339,8.058a8.747,8.747,0,0,0,.875.044A7.283,7.283,0,0,0,40.1,51.2c.314-4-2.978-7.619-7.338-8.058A8.753,8.753,0,0,0,31.881,43.1Z" fill="#13b5ea"/>
    <path id="Ligne_665" data-name="Ligne 665" d="M3.687,1.364q-.049,0-.1,0L-.1,1A1,1,0,0,1-1-.1,1,1,0,0,1,.1-1l3.686.364a1,1,0,0,1-.1,2Z" transform="translate(65.439 46.503)" fill="#13b5ea"/>
    <path id="Tracé_2991" data-name="Tracé 2991" d="M58.923,50.384c0,1.572-.824,2.846-1.841,2.846s-1.841-1.274-1.841-2.846.824-2.846,1.841-2.846,1.841,1.274,1.841,2.846" fill="#fff"/>
    <path id="Tracé_2992" data-name="Tracé 2992" d="M62.093,50.512a1,1,0,0,1-.672-.26,6.2,6.2,0,0,0-5.967-1.325,11.167,11.167,0,0,0-3.276,1.409,1,1,0,0,1-1.134-1.648A13.023,13.023,0,0,1,54.914,47a8.207,8.207,0,0,1,7.852,1.771,1,1,0,0,1-.673,1.74Z" fill="#fff"/>
    <path id="Tracé_2993" data-name="Tracé 2993" d="M44.9,88.9c-4.244,0-8.348-1.638-12.2-4.872A41.69,41.69,0,0,1,24.026,73.35a77.837,77.837,0,0,1-6.033-12.823,3.108,3.108,0,0,1-2.683.668c-.954-.147-1.851-.941-2.667-2.36a18.043,18.043,0,0,1-2.073-9.742,5.988,5.988,0,0,1,2.143-4.408,4.419,4.419,0,0,1,3.929-.9c2.3.676,3.384,3.393,3.429,3.509a1,1,0,0,1-1.862.731A4.2,4.2,0,0,0,16.072,45.7a2.521,2.521,0,0,0-2.188.6c-1.184.855-1.924,3.6-.911,7.81a14.576,14.576,0,0,0,1.4,3.722c.593,1.032,1.068,1.354,1.237,1.38a1.24,1.24,0,0,0,1.039-.176,1.992,1.992,0,0,0,.407-1.363.994.994,0,0,1,.81-1.057,1,1,0,0,1,1.145.7,76.463,76.463,0,0,0,6.747,15.037A39.658,39.658,0,0,0,34,82.505c3.536,2.963,7.266,4.44,11.087,4.392a1,1,0,0,1,.025,2Z" fill="#fff"/>
    <path id="Tracé_2994" data-name="Tracé 2994" d="M70.36,113.981q-.645,0-1.3-.019c-4.7-.139-8.256-1.041-10.577-2.683a1,1,0,0,1-.4-.591c-.082-.355-.176-.724-.275-1.114-.889-3.5-2.108-8.286,2.018-15.762,1.247-2.26.762-5.426.136-7.684A25.513,25.513,0,0,0,58.22,81.6a1,1,0,0,1,1.769-.932c.187.355,4.545,8.753,1.59,14.109-3.743,6.784-2.683,10.953-1.831,14.3.067.264.132.519.193.77,1.991,1.265,5.151,1.994,9.176,2.112a55.227,55.227,0,0,0,10.287-.778,1,1,0,1,1,.337,1.971A57.655,57.655,0,0,1,70.36,113.981Z" fill="#fff"/>
    <path id="Tracé_2995" data-name="Tracé 2995" d="M10.329,112.935a8.218,8.218,0,0,1-2.818-.49A10.627,10.627,0,0,1,3.843,110.1c-2.174-2.037-3.48-5.156-3.778-9.02a27.03,27.03,0,0,1,1.6-10.956A32.349,32.349,0,0,0,3.039,76.47,126.928,126.928,0,0,1,.856,53.06,89.976,89.976,0,0,1,3.084,32.322C4.937,24.573,7.95,18.1,12.038,13.087,19.184,4.323,29.632-.08,43.1,0A47.632,47.632,0,0,1,61.189,3.346a34.718,34.718,0,0,1,12.564,8.889,43.281,43.281,0,0,1,8.11,13.749,73.033,73.033,0,0,1,3.91,16.492c1.249,9.825,1.188,21.191-.187,34.748q0,.03-.008.06c-.022.137-2.242,13.855-2.439,23.537a1,1,0,0,1-2-.041c.2-9.6,2.341-23.05,2.46-23.787,1.357-13.391,1.419-24.6.19-34.265a71.044,71.044,0,0,0-3.8-16.038,41.3,41.3,0,0,0-7.726-13.119,32.733,32.733,0,0,0-11.846-8.38A45.655,45.655,0,0,0,43.083,2a42.718,42.718,0,0,0-17.812,3.37,31.689,31.689,0,0,0-11.683,8.98c-3.9,4.779-6.776,10.982-8.56,18.436A87.987,87.987,0,0,0,2.856,53.062,124.232,124.232,0,0,0,5,76.094q.007.032.012.065a32.07,32.07,0,0,1,.227,4.669A31.81,31.81,0,0,1,3.55,90.8a24.992,24.992,0,0,0-1.491,10.125c.259,3.357,1.349,6.025,3.152,7.715a8.684,8.684,0,0,0,2.978,1.926,6.478,6.478,0,0,0,3.065.313c2.127-.266,4.614-1.41,8.064-3.711a12.9,12.9,0,0,1,9.211-2.294,13.6,13.6,0,0,1,3.581,1.06,40.139,40.139,0,0,1-2.61-7.685,44.119,44.119,0,0,1-1.1-8.719,38.061,38.061,0,0,1,.64-8.6,1,1,0,0,1,1.952.437h0a36.916,36.916,0,0,0-.591,8.177,42.093,42.093,0,0,0,1.061,8.3A37.653,37.653,0,0,0,35,107.247a2.561,2.561,0,0,1,.194.431,1.09,1.09,0,0,1-.251,1.143,1.127,1.127,0,0,1-1.369.135c-.161-.077-.349-.184-.586-.319a13.374,13.374,0,0,0-4.75-1.787,10.967,10.967,0,0,0-7.812,1.979c-3.722,2.482-6.475,3.725-8.926,4.031A9.453,9.453,0,0,1,10.329,112.935Z" fill="#fff"/>
    <path id="Tracé_2996" data-name="Tracé 2996" d="M45.1,88.9a1,1,0,0,1-.011-2c3.562-.04,7.136-1.577,10.621-4.569a43.656,43.656,0,0,0,8.315-10.171A84.147,84.147,0,0,0,71.2,57.283a1,1,0,0,1,1.152-.659.994.994,0,0,1,.791,1.054,1.993,1.993,0,0,0,.408,1.364,1.24,1.24,0,0,0,1.039.176c.168-.026.644-.348,1.237-1.38a14.574,14.574,0,0,0,1.4-3.722c1.014-4.209.273-6.955-.911-7.81a2.508,2.508,0,0,0-2.385-.569,4.057,4.057,0,0,0-1.871,1.911,1,1,0,0,1-.069.375c-.091.232-.172.419-.241.557a1.074,1.074,0,0,1-1.033.692,1.009,1.009,0,0,1-.923-.724,1.418,1.418,0,0,1,.1-.955,24.551,24.551,0,0,0-4.213-5.473,20.008,20.008,0,0,0-5.662-3.927,17.522,17.522,0,0,0-8.044-1.539,17.79,17.79,0,0,1-8.938-1.921A20.857,20.857,0,0,1,37,29.986a27.058,27.058,0,0,1-3.94-5.808,53.47,53.47,0,0,0-6.572,6.787,34.166,34.166,0,0,0-4.823,7.778,17.338,17.338,0,0,0-1.533,8.8,1,1,0,0,1-1.987.226,19.311,19.311,0,0,1,1.692-9.839,36.22,36.22,0,0,1,5.118-8.252,53.05,53.05,0,0,1,7.855-7.894,1,1,0,0,1,1.545.423A24.406,24.406,0,0,0,38.535,28.7a18.825,18.825,0,0,0,5.445,4.267,15.815,15.815,0,0,0,7.913,1.687,19.5,19.5,0,0,1,8.994,1.734,22.039,22.039,0,0,1,6.242,4.347,26.736,26.736,0,0,1,3.9,4.84,5.839,5.839,0,0,1,1.217-1.185,3.961,3.961,0,0,1,2.363-.769,5.024,5.024,0,0,1,2.88,1.064,5.988,5.988,0,0,1,2.143,4.408,18.041,18.041,0,0,1-2.073,9.742c-.815,1.419-1.713,2.213-2.667,2.36a3.1,3.1,0,0,1-2.7-.686l-.057-.054A85.763,85.763,0,0,1,65.725,73.21a45.621,45.621,0,0,1-8.713,10.635c-3.852,3.307-7.856,5.007-11.9,5.052Z" fill="#fff"/>
    <path id="Tracé_2997" data-name="Tracé 2997" d="M65.156,30.847a1,1,0,0,1-.229-.027,35.515,35.515,0,0,1-9.109-3.511,36.583,36.583,0,0,1-6.435-4.537,30.108,30.108,0,0,1-5.124-5.655,1,1,0,0,1,1.681-1.083,28.828,28.828,0,0,0,4.819,5.285,34.575,34.575,0,0,0,6.069,4.263,33.515,33.515,0,0,0,8.555,3.29,1,1,0,0,1-.227,1.974Z" fill="#fff"/>
    <path id="Tracé_2998" data-name="Tracé 2998" d="M34.012,50.657c0,1.572-.824,2.846-1.842,2.846s-1.84-1.274-1.84-2.846.823-2.846,1.84-2.846,1.842,1.274,1.842,2.846" fill="#fff"/>
    <path id="Tracé_2999" data-name="Tracé 2999" d="M54.935,67.8a1,1,0,0,1,.992,1.124,13.655,13.655,0,0,1-1.881,5.038,10.666,10.666,0,0,1-9.542,5.1h-.05a9.091,9.091,0,0,1-6.765-3.36,9.818,9.818,0,0,1-1.74-3.122,1,1,0,0,1,1.488-1.132h0s.137.084.386.214A14.645,14.645,0,0,0,44.35,73.3c3.786,0,7.084-1.724,9.8-5.123A1,1,0,0,1,54.935,67.8ZM44.529,77.064A8.667,8.667,0,0,0,52.351,72.9q.123-.2.234-.392A14.175,14.175,0,0,1,50,74.067,13.34,13.34,0,0,1,44.35,75.3a16.1,16.1,0,0,1-5.125-.877l.056.068A7.053,7.053,0,0,0,44.529,77.064Z" fill="#fff"/>
    <path id="Tracé_3000" data-name="Tracé 3000" d="M44.368,66.927c-2.116,0-3.83-1.993-4.019-2.221a1,1,0,0,1,1.538-1.279h0a4.13,4.13,0,0,0,2.481,1.5c.9,0,2.008-1.136,2.4-1.686A1,1,0,0,1,48.4,64.407C48.211,64.665,46.526,66.927,44.368,66.927Z" fill="#fff"/>
    <path id="Tracé_3001" data-name="Tracé 3001" d="M37.5,50.784a1,1,0,0,1-.672-.26A6.2,6.2,0,0,0,30.858,49.2a11.167,11.167,0,0,0-3.276,1.409,1,1,0,0,1-1.134-1.648,13.023,13.023,0,0,1,3.87-1.688,8.207,8.207,0,0,1,7.852,1.771,1,1,0,0,1-.673,1.74Z" fill="#fff"/>
    <path id="Tracé_3002" data-name="Tracé 3002" d="M45.554,106.825a12.291,12.291,0,0,1-6.956-2.293,23.287,23.287,0,0,1-5.5-5.492,39.552,39.552,0,0,1-4.565-8.077,1,1,0,0,1,1.86-.735h0a38.224,38.224,0,0,0,4.337,7.655,21.249,21.249,0,0,0,5.006,5,10.147,10.147,0,0,0,6.38,1.919,10.16,10.16,0,0,0,5.511-2.346,24.883,24.883,0,0,0,4.619-4.895,43.468,43.468,0,0,0,4.229-7.1,1,1,0,0,1,1.825.817,44.679,44.679,0,0,1-4.424,7.447,26.931,26.931,0,0,1-5.008,5.3,12.11,12.11,0,0,1-6.627,2.773Q45.9,106.825,45.554,106.825Z" fill="#fff"/>
    <path id="Tracé_3003" data-name="Tracé 3003" d="M122.869,111.458a1,1,0,0,1-.837-1.546,11.691,11.691,0,0,0,1.917-4.732,6.942,6.942,0,0,0-.323-3.308,6.607,6.607,0,0,0-1.886-2.77l0,0,1.209-1.593a8.5,8.5,0,0,1,2.513,3.569,8.889,8.889,0,0,1,.475,4.285A13.584,13.584,0,0,1,123.708,111,1,1,0,0,1,122.869,111.458Z" fill="#13b5ea"/>
    <path id="Tracé_3004" data-name="Tracé 3004" d="M92.966,109.088a1,1,0,0,1-.9-1.435L98.419,94.5a1.793,1.793,0,0,0-3.23-1.559l-6.352,13.159a1,1,0,0,1-1.8-.869l6.352-13.159a3.793,3.793,0,0,1,6.832,3.3l-6.353,13.158A1,1,0,0,1,92.966,109.088Z" fill="#fff"/>
    <path id="Tracé_3005" data-name="Tracé 3005" d="M93.866,132.8a11.3,11.3,0,0,1-4.83-1.142,18.63,18.63,0,0,1-6.924-5.385,16.611,16.611,0,0,1-2.961-6.1,17.959,17.959,0,0,1-.41-6.97l.305-7.557a4.8,4.8,0,0,1,4.412-5.092h.014a4.8,4.8,0,0,1,5.141,4.409l.676,8.649a1,1,0,1,1-1.994.156l-.676-8.649a2.8,2.8,0,0,0-3-2.57H83.6a2.8,2.8,0,0,0-2.559,3,1,1,0,0,1,0,.118l-.31,7.678a1,1,0,0,1-.016.144,16.049,16.049,0,0,0,.388,6.261,14.608,14.608,0,0,0,2.615,5.33,16.676,16.676,0,0,0,6.163,4.76,9.439,9.439,0,0,0,3.8.949,8.327,8.327,0,0,0,3.331-.632c6.574-2.671,10.462-12.835,10.5-12.937.011-.028.023-.056.036-.083l5.327-11.036a1.342,1.342,0,1,0-2.417-1.167,1,1,0,1,1-1.8-.869,3.342,3.342,0,1,1,6.019,2.9l-5.308,11a36.819,36.819,0,0,1-2.949,5.81,27.589,27.589,0,0,1-3.6,4.679,15.147,15.147,0,0,1-5.047,3.552A10.307,10.307,0,0,1,93.866,132.8Z" fill="#fff"/>
    <path id="Tracé_3006" data-name="Tracé 3006" d="M104.068,116.884a1,1,0,0,1-.9-1.435l7.613-15.77a2.347,2.347,0,1,0-4.227-2.041l-7.064,14.635a1,1,0,0,1-1.8-.869l7.064-14.635a4.347,4.347,0,0,1,7.829,3.779l-7.613,15.77A1,1,0,0,1,104.068,116.884Z" fill="#fff"/>
    <path id="Tracé_3007" data-name="Tracé 3007" d="M105.392,98.746a1,1,0,0,1-.9-1.435l1.722-3.567a2.347,2.347,0,1,0-4.227-2.04L99.9,96.027a1,1,0,1,1-1.8-.87l2.087-4.323a4.347,4.347,0,1,1,7.829,3.78l-1.722,3.567A1,1,0,0,1,105.392,98.746Z" fill="#fff"/>
    <path id="Tracé_3008" data-name="Tracé 3008" d="M119.668,109.089a1,1,0,0,1-.837-1.546c1.091-1.677,1.393-3.2.9-4.518a3.569,3.569,0,0,0-.977-1.429A1,1,0,1,1,119.96,100a5.441,5.441,0,0,1,1.64,2.32,7.075,7.075,0,0,1-1.094,6.312A1,1,0,0,1,119.668,109.089Z" fill="#13b5ea"/>
    <path id="Tracé_3009" data-name="Tracé 3009" d="M87.938,91.924a1,1,0,0,1-.975-1.23A10.664,10.664,0,0,1,88.27,87.73a8.056,8.056,0,0,1,5.307-3.776,1,1,0,1,1,.381,1.963,6.012,6.012,0,0,0-3.966,2.834,8.805,8.805,0,0,0-1.081,2.4A1,1,0,0,1,87.938,91.924Z" fill="#13b5ea"/>
  </g>
</svg>
