<?xml version="1.0" encoding="UTF-8" standalone="no"?>
<svg
   sodipodi:docname="job-white.svg"
   version="1.1"
   viewBox="0 0 146.18 149.154"
   height="149.154"
   width="146.18"
   id="picto-tendance"
   inkscape:version="1.1 (c68e22c387, 2021-05-23)"
   xmlns:inkscape="http://www.inkscape.org/namespaces/inkscape"
   xmlns:sodipodi="http://sodipodi.sourceforge.net/DTD/sodipodi-0.dtd"
   xmlns="http://www.w3.org/2000/svg"
   xmlns:svg="http://www.w3.org/2000/svg">
  <sodipodi:namedview
     id="namedview12913"
     pagecolor="#ffffff"
     bordercolor="#666666"
     borderopacity="1.0"
     inkscape:pageshadow="2"
     inkscape:pageopacity="0.0"
     inkscape:pagecheckerboard="0"
     showgrid="false"
     inkscape:zoom="5.8530107"
     inkscape:cx="73.124759"
     inkscape:cy="74.491577"
     inkscape:window-width="2560"
     inkscape:window-height="1334"
     inkscape:window-x="-11"
     inkscape:window-y="-11"
     inkscape:window-maximized="1"
     inkscape:current-layer="picto-tendance" />
  <defs
     id="defs12870">
    <clipPath
       id="clip-path">
      <rect
         id="Rectangle_1809"
         data-name="Rectangle 1809"
         width="146.18"
         height="149.154"
         fill="none" />
    </clipPath>
  </defs>
  <g
     id="Groupe_1801"
     data-name="Groupe 1801"
     clip-path="url(#clip-path)">
    <path
       id="Tracé_1810"
       data-name="Tracé 1810"
       d="M131.017,149.155a13.136,13.136,0,0,1-1.794-.133l-49.568-6.887a7.745,7.745,0,0,1-6.6-8.727l9.8-70.538A7.737,7.737,0,0,1,90.513,56.2a7.822,7.822,0,0,1,1.073.074l40.634,5.646a1,1,0,0,1,.7.447l13.1,20.213a1,1,0,0,1,.151.681l-2.834,20.4,0,.016-6.286,40.316C136.575,147.368,134.49,149.155,131.017,149.155ZM90.513,58.2a5.737,5.737,0,0,0-5.672,4.948l-9.8,70.538a5.742,5.742,0,0,0,4.891,6.471l49.568,6.887a11.141,11.141,0,0,0,1.518.114,4.3,4.3,0,0,0,2.772-.773,3.944,3.944,0,0,0,1.279-2.677l0-.016,6.286-40.316,2.782-20.02L131.491,63.836,91.31,58.252A5.815,5.815,0,0,0,90.513,58.2Z"
       fill="#ffffff" />
    <path
       id="Tracé_1811"
       data-name="Tracé 1811"
       d="M133.064,62.084l13.1,20.213L130.069,80.06Z"
       fill="#13b5ea" />
    <text
       id="_"
       data-name="€"
       transform="matrix(0.991, 0.135, -0.134, 0.991, 121.519, 93.84)"
       fill="#13b5ea"
       font-size="14.248"
       font-family="WorkSans-Bold, Work Sans"
       font-weight="700"><tspan
         x="0"
         y="0"
         id="tspan12874">€</tspan></text>
    <path
       id="Rectangle_1806"
       data-name="Rectangle 1806"
       d="M0-1H18.668a1,1,0,0,1,1,1V22.2a1,1,0,0,1-1,1H0a1,1,0,0,1-1-1V0A1,1,0,0,1,0-1ZM17.668,1H1V21.2H17.668Z"
       transform="translate(92.419 88.306) rotate(-82.09)"
       fill="#ffffff" />
    <path
       id="Rectangle_1807"
       data-name="Rectangle 1807"
       d="M0-1H6.163a1,1,0,0,1,1,1V22.2a1,1,0,0,1-1,1H0a1,1,0,0,1-1-1V0A1,1,0,0,1,0-1ZM5.163,1H1V21.2H5.163Z"
       transform="translate(86.286 132.442) rotate(-82.09)"
       fill="#ffffff" />
    <path
       id="Rectangle_1808"
       data-name="Rectangle 1808"
       d="M0-1H6.163a1,1,0,0,1,1,1V11.933a1,1,0,0,1-1,1H0a1,1,0,0,1-1-1V0A1,1,0,0,1,0-1ZM5.163,1H1v9.933H5.163Z"
       transform="translate(113.593 136.236) rotate(-82.091)"
       fill="#ffffff" />
    <path
       id="Ligne_251"
       data-name="Ligne 251"
       d="M31.281,5.346a1.009,1.009,0,0,1-.139-.01L-.138.99A1,1,0,0,1-.99-.138,1,1,0,0,1,.138-.99l31.28,4.346a1,1,0,0,1-.136,1.991Z"
       transform="translate(101.116 99.552)"
       fill="#ffffff" />
    <path
       id="Ligne_252"
       data-name="Ligne 252"
       d="M5.343,1.742a1.008,1.008,0,0,1-.139-.01L-.138.99A1,1,0,0,1-.99-.138,1,1,0,0,1,.138-.99L5.48-.248a1,1,0,0,1-.136,1.991Z"
       transform="translate(91.282 98.186)"
       fill="#ffffff" />
    <path
       id="Ligne_253"
       data-name="Ligne 253"
       d="M23.074,4.206a1.008,1.008,0,0,1-.139-.01L-.138.99A1,1,0,0,1-.99-.138,1,1,0,0,1,.138-.99L23.211,2.216a1,1,0,0,1-.136,1.991Z"
       transform="translate(100.126 106.676)"
       fill="#ffffff" />
    <path
       id="Ligne_254"
       data-name="Ligne 254"
       d="M5.343,1.742a1.008,1.008,0,0,1-.139-.01L-.138.99A1,1,0,0,1-.99-.138,1,1,0,0,1,.138-.99L5.48-.248a1,1,0,0,1-.136,1.991Z"
       transform="translate(90.293 105.309)"
       fill="#ffffff" />
    <path
       id="Ligne_255"
       data-name="Ligne 255"
       d="M27.255,4.787a1.008,1.008,0,0,1-.139-.01L-.138.99A1,1,0,0,1-.99-.138,1,1,0,0,1,.138-.99L27.392,2.8a1,1,0,0,1-.136,1.991Z"
       transform="translate(99.136 113.799)"
       fill="#ffffff" />
    <path
       id="Ligne_256"
       data-name="Ligne 256"
       d="M5.343,1.742a1.008,1.008,0,0,1-.139-.01L-.138.99A1,1,0,0,1-.99-.138,1,1,0,0,1,.138-.99L5.48-.248a1,1,0,0,1-.136,1.991Z"
       transform="translate(89.303 112.433)"
       fill="#ffffff" />
    <path
       id="Ligne_257"
       data-name="Ligne 257"
       d="M24.777,4.443a1.008,1.008,0,0,1-.139-.01L-.138.99A1,1,0,0,1-.99-.138,1,1,0,0,1,.138-.99L24.914,2.453a1,1,0,0,1-.136,1.991Z"
       transform="translate(98.146 120.922)"
       fill="#ffffff" />
    <path
       id="Ligne_258"
       data-name="Ligne 258"
       d="M5.343,1.742a1.008,1.008,0,0,1-.139-.01L-.138.99A1,1,0,0,1-.99-.138,1,1,0,0,1,.138-.99L5.48-.248a1,1,0,0,1-.136,1.991Z"
       transform="translate(88.313 119.556)"
       fill="#ffffff" />
    <path
       id="Tracé_1812"
       data-name="Tracé 1812"
       d="M44.47,41.995c0,1.367-.718,2.476-1.6,2.476s-1.6-1.109-1.6-2.476.717-2.476,1.6-2.476,1.6,1.109,1.6,2.476"
       fill="#ffffff" />
    <path
       id="Tracé_1813"
       data-name="Tracé 1813"
       d="M65.559,41.995c0,1.367-.717,2.476-1.6,2.476s-1.6-1.109-1.6-2.476.716-2.476,1.6-2.476,1.6,1.109,1.6,2.476"
       fill="#ffffff" />
    <path
       id="Tracé_1814"
       data-name="Tracé 1814"
       d="M53.462,99.642a2.235,2.235,0,1,1-2.234,2.235A2.238,2.238,0,0,1,53.462,99.642Zm0,2.47a.235.235,0,1,0-.234-.235A.235.235,0,0,0,53.462,102.112Z"
       fill="#ffffff" />
    <path
       id="Tracé_1815"
       data-name="Tracé 1815"
       d="M53.462,107.256a2.235,2.235,0,1,1-2.234,2.235A2.238,2.238,0,0,1,53.462,107.256Zm0,2.47a.235.235,0,1,0-.234-.235A.235.235,0,0,0,53.462,109.726Z"
       fill="#ffffff" />
    <path
       id="Tracé_1816"
       data-name="Tracé 1816"
       d="M64.426,50.158h0c-4.79,0-8.67-3.022-9.027-7.029a7.223,7.223,0,0,1,2.31-5.842,10.339,10.339,0,0,1,6.329-2.8c.334-.03.672-.045,1-.045,4.788,0,8.668,3.021,9.025,7.028a7.223,7.223,0,0,1-2.31,5.842,10.342,10.342,0,0,1-6.329,2.8C65.1,50.143,64.758,50.158,64.426,50.158Zm.617-13.718c-.274,0-.552.012-.828.037a8.337,8.337,0,0,0-5.108,2.24,5.262,5.262,0,0,0-1.717,4.234,5.2,5.2,0,0,0,2.161,3.667,8.1,8.1,0,0,0,4.874,1.539c.274,0,.551-.012.826-.037,4.048-.36,7.11-3.265,6.824-6.475a5.2,5.2,0,0,0-2.16-3.667A8.1,8.1,0,0,0,65.043,36.44Z"
       fill="#13b5ea" />
    <path
       id="Tracé_1817"
       data-name="Tracé 1817"
       d="M53.449,73.4h-.021A22.77,22.77,0,0,1,41.023,69.74a22.447,22.447,0,0,1-6.955-7.607,30.685,30.685,0,0,1-3.53-9.9,7.827,7.827,0,0,1-2.725-.514c-1.783-.693-4.061-2.411-4.784-6.661-.989-5.813,1.641-7.051,2.817-7.314.725-.162,2.021-.183,2.284.763a1.03,1.03,0,0,1-.679,1.247,1,1,0,0,1-.836-.094,1.481,1.481,0,0,0-1.027.4c-.768.719-.977,2.375-.588,4.661.454,2.67,1.644,4.4,3.537,5.132a5.771,5.771,0,0,0,2.7.343,1,1,0,0,1,1.162.886,28.51,28.51,0,0,0,3.441,10.112,20.433,20.433,0,0,0,6.331,6.9,20.821,20.821,0,0,0,11.3,3.3,1,1,0,0,1-.02,2Z"
       fill="#ffffff" />
    <path
       id="Ligne_259"
       data-name="Ligne 259"
       d="M0,13.793a1.011,1.011,0,0,1-.106-.006,1,1,0,0,1-.889-1.1L.359-.105a1,1,0,0,1,1.1-.889,1,1,0,0,1,.889,1.1L.994,12.9A1,1,0,0,1,0,13.793Z"
       transform="translate(37.275 66.887)"
       fill="#ffffff" />
    <path
       id="Tracé_1818"
       data-name="Tracé 1818"
       d="M35.9,78.68a1,1,0,0,1,.483.125c6.221,3.436,16.414,8.986,17.569,9.411a1,1,0,0,1,.583,1.6l-8.961,11.233a1,1,0,0,1-1.458.113c-.037-.034-3.785-3.477-7.684-6.98-6.961-6.253-8.4-7.3-8.7-7.478a1,1,0,0,1-.283-1.733l7.833-6.084A1,1,0,0,1,35.9,78.68ZM52.167,89.585c-.466-.231-1.087-.55-1.927-.99-1.511-.792-3.57-1.894-6.121-3.278-3.407-1.848-6.8-3.715-8.122-4.443L29.76,85.718c.468.372,1.1.9,1.97,1.644,1.432,1.228,3.357,2.926,5.722,5.049,2.953,2.649,5.871,5.313,7.23,6.557Z"
       fill="#ffffff" />
    <path
       id="Tracé_1819"
       data-name="Tracé 1819"
       d="M1.005,114.13a1,1,0,0,1-1-.94c-.013-.224-.283-5.584,3.664-13.917A18.9,18.9,0,0,1,9.737,92.32,38.377,38.377,0,0,1,17.792,87.9a56.594,56.594,0,0,1,10.093-3.118,1,1,0,0,1,.372,1.965h0a55.655,55.655,0,0,0-9.732,3.014,36.32,36.32,0,0,0-7.616,4.181,16.928,16.928,0,0,0-5.429,6.188C1.75,108,2,113.021,2,113.07a1,1,0,0,1-.939,1.058Z"
       fill="#ffffff" />
    <path
       id="Tracé_1820"
       data-name="Tracé 1820"
       d="M53.753,73.4a1,1,0,0,1-.02-2,20.82,20.82,0,0,0,11.3-3.3,20.435,20.435,0,0,0,6.331-6.9,28.512,28.512,0,0,0,3.442-10.113.993.993,0,0,1,1.162-.886,5.792,5.792,0,0,0,2.767-.371c1.851-.751,3.017-2.468,3.465-5.1.389-2.286.18-3.942-.588-4.661a1.481,1.481,0,0,0-1.027-.4,1,1,0,0,1-.836.094,1.03,1.03,0,0,1-.679-1.247c.263-.946,1.559-.925,2.284-.763,1.177.263,3.807,1.5,2.817,7.314-.4,2.346-1.553,5.406-4.784,6.661a7.829,7.829,0,0,1-2.725.514,30.688,30.688,0,0,1-3.53,9.9,22.448,22.448,0,0,1-6.955,7.607,22.769,22.769,0,0,1-12.4,3.659Z"
       fill="#ffffff" />
    <path
       id="Ligne_260"
       data-name="Ligne 260"
       d="M1.352,13.793A1,1,0,0,1,.359,12.9L-.994.105a1,1,0,0,1,.889-1.1,1,1,0,0,1,1.1.889L2.347,12.688a1,1,0,0,1-.889,1.1A1.011,1.011,0,0,1,1.352,13.793Z"
       transform="translate(68.573 66.887)"
       fill="#ffffff" />
    <path
       id="Tracé_1821"
       data-name="Tracé 1821"
       d="M62.539,101.429l-.061,0a1,1,0,0,1-.727-.381L52.969,89.835q-.03-.039-.056-.08a1.017,1.017,0,0,1-.073-.969,1,1,0,0,1,.684-.563c1.075-.387,11.232-5.967,17.421-9.416a1,1,0,0,1,1.2.169l6.048,6.084a1,1,0,0,1-.025,1.434c-4.252,3.988-14.811,14.537-14.917,14.643A1,1,0,0,1,62.539,101.429ZM55.315,89.586l7.316,9.338c2.392-2.384,9.565-9.519,13.416-13.183l-4.791-4.82c-1.356.754-4.595,2.551-7.863,4.341C58.807,87.773,56.508,88.99,55.315,89.586Z"
       fill="#ffffff" />
    <path
       id="Tracé_1822"
       data-name="Tracé 1822"
       d="M53.652,63.209c-3.946,0-6.846-3.067-6.968-3.2a1,1,0,0,1,1.462-1.365h0c.024.026,2.46,2.577,5.535,2.562a6.876,6.876,0,0,0,5-2.557,1,1,0,1,1,1.471,1.355,8.774,8.774,0,0,1-6.479,3.2Z"
       fill="#ffffff" />
    <path
       id="Tracé_1823"
       data-name="Tracé 1823"
       d="M53.463,56.351c-1.977,0-3.571-1.853-3.747-2.064a1,1,0,0,1,1.537-1.279h0a3.772,3.772,0,0,0,2.209,1.344c.848,0,1.851-1.12,2.136-1.512a1,1,0,1,1,1.624,1.168C57.051,54.247,55.483,56.351,53.463,56.351Z"
       fill="#ffffff" />
    <path
       id="Tracé_1824"
       data-name="Tracé 1824"
       d="M37.656,42.236a1,1,0,0,1-.569-1.823A11.473,11.473,0,0,1,40.5,38.925,7.262,7.262,0,0,1,47.445,40.5a1,1,0,1,1-1.345,1.48,5.281,5.281,0,0,0-5.118-1.11,9.432,9.432,0,0,0-2.758,1.194A1,1,0,0,1,37.656,42.236Z"
       fill="#ffffff" />
    <path
       id="Tracé_1825"
       data-name="Tracé 1825"
       d="M67.862,42.236a1,1,0,0,1-.672-.26,5.267,5.267,0,0,0-5.064-1.124,9.584,9.584,0,0,0-2.814,1.208,1,1,0,0,1-1.134-1.648,11.473,11.473,0,0,1,3.409-1.488A7.262,7.262,0,0,1,68.535,40.5a1,1,0,0,1-.673,1.74Z"
       fill="#ffffff" />
    <path
       id="Tracé_1826"
       data-name="Tracé 1826"
       d="M34.3,40a1,1,0,0,1-.738-.324,16.023,16.023,0,0,0-3.851-.71c-1.736-.2-3.352-.323-3.368-.324a1,1,0,0,1,.145-1.995c.077.006,1.906.14,3.824.377,1.142.141,2.077.29,2.778.443,1.248.271,1.813.557,2.085,1.052A1,1,0,0,1,34.3,40Z"
       fill="#13b5ea" />
    <path
       id="Tracé_1827"
       data-name="Tracé 1827"
       d="M57.133,39.748a1,1,0,0,1-.63-.224,5.186,5.186,0,0,0-4.559-1.174,6.091,6.091,0,0,0-2.148.939,1,1,0,1,1-1.221-1.584,8.013,8.013,0,0,1,2.844-1.287,7.162,7.162,0,0,1,6.345,1.553,1,1,0,0,1-.631,1.776Z"
       fill="#13b5ea" />
    <path
       id="Tracé_1828"
       data-name="Tracé 1828"
       d="M45,13.638a1,1,0,0,1-.971-1.243,8.748,8.748,0,0,1,1.63-3.032,11.881,11.881,0,0,1,6.947-4.082,1,1,0,0,1,.427,1.954c-5.911,1.293-7.053,5.6-7.063,5.645A1,1,0,0,1,45,13.638Z"
       fill="#ffffff" />
    <path
       id="Tracé_1829"
       data-name="Tracé 1829"
       d="M53.694,15.048a1,1,0,0,1-.826-1.562c.151-.223,3.767-5.471,8.806-6.784a1,1,0,0,1,.5,1.935c-4.3,1.122-7.624,5.926-7.657,5.974A1,1,0,0,1,53.694,15.048Z"
       fill="#ffffff" />
    <path
       id="Tracé_1830"
       data-name="Tracé 1830"
       d="M42.243,50.158c-.332,0-.67-.015-1-.045a10.342,10.342,0,0,1-6.329-2.8,7.223,7.223,0,0,1-2.31-5.842c.357-4.007,4.236-7.028,9.025-7.028.333,0,.671.015,1.005.045a10.338,10.338,0,0,1,6.329,2.8,7.223,7.223,0,0,1,2.31,5.842C50.914,47.136,47.033,50.158,42.243,50.158ZM41.626,36.44a8.1,8.1,0,0,0-4.872,1.539,5.2,5.2,0,0,0-2.16,3.667c-.286,3.21,2.776,6.115,6.825,6.475.275.024.552.037.826.037a8.1,8.1,0,0,0,4.874-1.539,5.2,5.2,0,0,0,2.161-3.667,5.262,5.262,0,0,0-1.717-4.234,8.337,8.337,0,0,0-5.108-2.24C42.178,36.453,41.9,36.44,41.626,36.44Z"
       fill="#13b5ea" />
    <path
       id="Ligne_261"
       data-name="Ligne 261"
       d="M0,2.64A1,1,0,0,1-.97,1.884,1,1,0,0,1-.244.67L6.283-.97A1,1,0,0,1,7.5-.244,1,1,0,0,1,6.771.97L.244,2.61A1,1,0,0,1,0,2.64Z"
       transform="translate(72.774 38.118)"
       fill="#13b5ea" />
    <path
       id="Tracé_1831"
       data-name="Tracé 1831"
       d="M80.066,39.805a1,1,0,0,1-.66-.248c-.324-.284-7.942-7.039-8.591-13.53a11.666,11.666,0,0,0-1.18-4.582,1.837,1.837,0,0,0-1.652-1.121,4.25,4.25,0,0,0-2.046.7q-.036.021-.075.04a26.906,26.906,0,0,1-11.712,2.707,29.749,29.749,0,0,1-9.459-1.608,43.045,43.045,0,0,1-5.969-2.578l-.254-.129a33.753,33.753,0,0,1-2.64,9.023,23.278,23.278,0,0,1-4.35,6.444,17.219,17.219,0,0,1-4.406,3.336,7.815,7.815,0,0,1-3.144.99h0a1.2,1.2,0,0,1-1.341-1.037,37.75,37.75,0,0,1,.746-13.07A21.311,21.311,0,0,1,27.1,17.257a15.142,15.142,0,0,1,5.769-4.62,14.6,14.6,0,0,1,7.058-9.856A19.632,19.632,0,0,1,45.648.629,29.492,29.492,0,0,1,51.888,0,41.326,41.326,0,0,1,63.95,1.876C67.56,3.011,70.2,4.438,71.179,5.79c.733,1.008,3.163,3.351,9.888,3.351.941,0,1.555-.054,1.561-.054a1,1,0,0,1,1.078,1.148,16.351,16.351,0,0,1-1.622,5.147,11.2,11.2,0,0,1-2.347,3.08,9.252,9.252,0,0,1-1.691,1.23,15.148,15.148,0,0,1,2.864,5.252,22.457,22.457,0,0,1,.992,6.67,30.064,30.064,0,0,1-.872,7.457,1,1,0,0,1-.964.736ZM51.888,2A21.93,21.93,0,0,0,40.937,4.51a12.783,12.783,0,0,0-6.215,9.054,1,1,0,0,1-.688.766,8.75,8.75,0,0,0-1.75.875,14.279,14.279,0,0,0-3.693,3.4,19.465,19.465,0,0,0-3.348,7.149,35.082,35.082,0,0,0-.743,11.4,13.236,13.236,0,0,0,5.543-3.621,21.287,21.287,0,0,0,3.971-5.894,32.658,32.658,0,0,0,2.643-9.658,1,1,0,0,1,.022-.117,1.062,1.062,0,0,1,1.053-.805,4.835,4.835,0,0,1,1.9.746,31.643,31.643,0,0,0,14.522,3.969,24.916,24.916,0,0,0,10.811-2.493,6.12,6.12,0,0,1,3.022-.957,3.813,3.813,0,0,1,3.372,2.1,13.317,13.317,0,0,1,1.449,5.4c.424,4.234,4.527,8.87,6.655,11.014a29.43,29.43,0,0,0,.443-5.263,20.408,20.408,0,0,0-.9-6.051,12.754,12.754,0,0,0-3.347-5.458,1,1,0,0,1-.286-.991.987.987,0,0,1,.735-.708A6.243,6.243,0,0,0,78.481,16.9,11.157,11.157,0,0,0,81.5,11.137c-.136,0-.281,0-.434,0-3.163,0-8.864-.542-11.505-4.174-.535-.735-2.483-2.01-6.212-3.183A39.271,39.271,0,0,0,51.888,2Z"
       fill="#ffffff" />
  </g>
</svg>
